<svg width="48" height="56" viewBox="0 0 48 56" fill="none" xmlns="http://www.w3.org/2000/svg">
<g id="octicon:location-24">
<path id="Vector" d="M24 31.5C25.3261 31.5 26.5979 30.8854 27.5355 29.7915C28.4732 28.6975 29 27.2138 29 25.6667C29 24.1196 28.4732 22.6358 27.5355 21.5419C26.5979 20.4479 25.3261 19.8333 24 19.8333C22.6739 19.8333 21.4021 20.4479 20.4645 21.5419C19.5268 22.6358 19 24.1196 19 25.6667C19 27.2138 19.5268 28.6975 20.4645 29.7915C21.4021 30.8854 22.6739 31.5 24 31.5Z" fill="black"/>
<path id="Vector_2" d="M38.142 8.001H38.144C45.954 17.1127 45.954 31.8873 38.144 40.999L27.338 53.606C26.453 54.6376 25.2531 55.2171 24.002 55.2171C22.7509 55.2171 21.551 54.6376 20.666 53.606L9.916 41.0643L9.86 40.999C2.05 31.8873 2.05 17.1127 9.86 8.001C17.668 -1.11066 30.332 -1.11066 38.142 8.001ZM11.98 10.4743C8.79238 14.1937 7.00163 19.2403 7.00163 24.5C7.00163 29.7597 8.79238 34.8039 11.98 38.5233L12.026 38.5793L12.03 38.584L22.786 51.1327C23.1081 51.508 23.5448 51.7188 24 51.7188C24.4552 51.7188 24.8919 51.508 25.214 51.1327L36.02 38.5233C39.17 34.7949 40.9287 29.7646 40.9126 24.5295C40.8965 19.2944 39.1069 14.279 35.934 10.577C32.7611 6.87502 28.4624 4.78673 23.9751 4.7675C19.4879 4.74826 15.1761 6.79965 11.98 10.4743Z" fill="black"/>
</g>
</svg>
